# xmcd CD database file
#
# Track frame offsets:
#	182
#	9865
#	18742
#	30082
#	38982
#	50042
#	60255
#	68692
#	80022
#	91905
#	101165
#	109825
#	120272
#	131257
#	142777
#	153567
#	164250
#	173780
#	184337
#	195590
#	204760
#	217247
#	228155
#	238685
#	246820
#	256355
#	267792
#	277772
#	288282
#	296185
#
# Disc length: 4097 seconds
#
# Revision: 0
# Processed by: cddbd v1.5.2PL0 Copyright (c) Steve Scherf et al.
# Submitted via: CDex 1.70beta2
#
DISCID=9a0fff1e
DTITLE=Various Artist - Ultra Rare Hillbilly Boogie, Vol. 1
DYEAR=1900
DGENRE=Hillbilly
TTITLE0=Bob Luce and His Stardusters - Hot Shot
TTITLE1=Tunesmiths - Baby, I'm Ready
TTITLE2=Gayle Griffith and The L.M.C.Trio - I'm Gonna Anchor My Heart
TTITLE3=Eddy Arnold - Hep Cat Baby
TTITLE4=Dale Brooks and The Country Caravans - Ambridge Boogie
TTITLE5=Jimmy Dawson - It Took An Older Woman
TTITLE6=Cliff Waldon and The Westernaires - My Baby Doll
TTITLE7=Bud Hoobs and His Trail Herders - Mean Mean Man
TTITLE8=Louie Bashell and His Silk Umbrella Orchestra - Oklahoma Boogie
TTITLE9=Sonny Defreest and The Western Rhythm Boys - Little Boy Blue
TTITLE10=Wade Holmes - Go Boy Go
TTITLE11=Kenny Brown and The Arkansas Ramblers - Passing Fancy
TTITLE12=Lee Bell - Beaten Out The Boogie
TTITLE13=Carl Smith - Back Up Buddy
TTITLE14=Lucky Wray - It's Music She Says
TTITLE15=Wade Ray - Idaho Red
TTITLE16=Curtis Gordon - You Ain't Seen Nothin' Yet
TTITLE17=Frank Simon - Sugar Plum Boogie
TTITLE18=Margie Martin - It Must Be Love
TTITLE19=Lefty Frizzell - Just Can't Live That Fast (Anymore)
TTITLE20=Carroll Country Boys - Carroll Country Boogie
TTITLE21=Rose Maddox - I'm A Little Red Caboose
TTITLE22=Roy Hogshed - It's More Fun That Way
TTITLE23=Eddie Dean - Now Ain't That Love
TTITLE24=Hal Lone Pine and His Mountaineers - Honey, Honey Mine
TTITLE25=Zeb Turner - No More Nothing
TTITLE26=Charline Arthur - Burn That Candle
TTITLE27=Roy Hogshed - I Wish I Wuz
TTITLE28=Cook Brothers - Jukebox Play For Me
TTITLE29=Bob Hepler - One Step Ahead
EXTD=
EXTT0=
EXTT1=
EXTT2=
EXTT3=
EXTT4=
EXTT5=
EXTT6=
EXTT7=
EXTT8=
EXTT9=
EXTT10=
EXTT11=
EXTT12=
EXTT13=
EXTT14=
EXTT15=
EXTT16=
EXTT17=
EXTT18=
EXTT19=
EXTT20=
EXTT21=
EXTT22=
EXTT23=
EXTT24=
EXTT25=
EXTT26=
EXTT27=
EXTT28=
EXTT29=
PLAYORDER=
